HIERARCHY
ROOT Hips
{
	OFFSET 0.00000 0.00000 0.00000
	CHANNELS 6 Xposition Yposition Zposition Zrotation Yrotation Xrotation 
	JOINT LHipJoint
	{
		OFFSET 0 0 0
		CHANNELS 3 Zrotation Yrotation Xrotation
		JOINT LeftUpLeg
		{
			OFFSET 1.33213 -1.58186 0.78596
			CHANNELS 3 Zrotation Yrotation Xrotation
			JOINT LeftLeg
			{
				OFFSET 2.29717 -6.31144 0.00000
				CHANNELS 3 Zrotation Yrotation Xrotation
				JOINT LeftFoot
				{
					OFFSET 2.38430 -6.55082 0.00000
					CHANNELS 3 Zrotation Yrotation Xrotation
					JOINT LeftToeBase
					{
						OFFSET 0.11863 -0.32594 1.77568
						CHANNELS 3 Zrotation Yrotation Xrotation
						End Site
						{
							OFFSET 0.00000 -0.00000 0.91633
						}
					}
				}
			}
		}
	}
	JOINT RHipJoint
	{
		OFFSET 0 0 0
		CHANNELS 3 Zrotation Yrotation Xrotation
		JOINT RightUpLeg
		{
			OFFSET -1.41575 -1.58186 0.78596
			CHANNELS 3 Zrotation Yrotation Xrotation
			JOINT RightLeg
			{
				OFFSET -2.42012 -6.64922 0.00000
				CHANNELS 3 Zrotation Yrotation Xrotation
				JOINT RightFoot
				{
					OFFSET -2.47254 -6.79327 0.00000
					CHANNELS 3 Zrotation Yrotation Xrotation
					JOINT RightToeBase
					{
						OFFSET -0.15219 -0.41813 1.93430
						CHANNELS 3 Zrotation Yrotation Xrotation
						End Site
						{
							OFFSET -0.00000 -0.00000 0.99984
						}
					}
				}
			}
		}
	}
	JOINT LowerBack
	{
		OFFSET 0 0 0
		CHANNELS 3 Zrotation Yrotation Xrotation
		JOINT Spine
		{
			OFFSET -0.04717 2.09389 -0.14516
			CHANNELS 3 Zrotation Yrotation Xrotation
			JOINT Spine1
			{
				OFFSET 0.02825 2.09433 -0.11325
				CHANNELS 3 Zrotation Yrotation Xrotation
				JOINT Neck
				{
					OFFSET 0 0 0
					CHANNELS 3 Zrotation Yrotation Xrotation
					JOINT Neck1
					{
						OFFSET -0.01210 1.39029 0.12448
						CHANNELS 3 Zrotation Yrotation Xrotation
						JOINT Head
						{
							OFFSET 0.09492 1.38365 0.14559
							CHANNELS 3 Zrotation Yrotation Xrotation
							End Site
							{
								OFFSET 0.03402 1.40343 0.03708
							}
						}
					}
				}
				JOINT LeftShoulder
				{
					OFFSET 0 0 0
					CHANNELS 3 Zrotation Yrotation Xrotation
					JOINT LeftArm
					{
						OFFSET 2.83352 1.10671 -0.20481
						CHANNELS 3 Zrotation Yrotation Xrotation
						JOINT LeftForeArm
						{
							OFFSET 4.77195 -0.00000 -0.00000
							CHANNELS 3 Zrotation Yrotation Xrotation
							JOINT LeftHand
							{
								OFFSET 2.98444 -0.00000 0.00000
								CHANNELS 3 Zrotation Yrotation Xrotation
								JOINT LeftFingerBase
								{
									OFFSET 0 0 0
									CHANNELS 3 Zrotation Yrotation Xrotation
									JOINT LeftHandIndex1
									{
										OFFSET 0.99228 -0.00000 0.00000
										CHANNELS 3 Zrotation Yrotation Xrotation
										End Site
										{
											OFFSET 0.80001 -0.00000 0.00000
										}
									}
								}
								JOINT LThumb
								{
									OFFSET 0 0 0
									CHANNELS 3 Zrotation Yrotation Xrotation
									End Site
									{
										OFFSET 0.81222 -0.00000 0.81222
									}
								}
							}
						}
					}
				}
				JOINT RightShoulder
				{
					OFFSET 0 0 0
					CHANNELS 3 Zrotation Yrotation Xrotation
					JOINT RightArm
					{
						OFFSET -3.23760 1.11106 0.06723
						CHANNELS 3 Zrotation Yrotation Xrotation
						JOINT RightForeArm
						{
							OFFSET -4.62052 -0.00000 0.00000
							CHANNELS 3 Zrotation Yrotation Xrotation
							JOINT RightHand
							{
								OFFSET -2.95332 -0.00000 0.00000
								CHANNELS 3 Zrotation Yrotation Xrotation
								JOINT RightFingerBase
								{
									OFFSET 0 0 0
									CHANNELS 3 Zrotation Yrotation Xrotation
									JOINT RightHandIndex1
									{
										OFFSET -0.99096 -0.00000 0.00000
										CHANNELS 3 Zrotation Yrotation Xrotation
										End Site
										{
											OFFSET -0.79893 -0.00000 0.00000
										}
									}
								}
								JOINT RThumb
								{
									OFFSET 0 0 0
									CHANNELS 3 Zrotation Yrotation Xrotation
									End Site
									{
										OFFSET -0.81113 -0.00000 0.81113
									}
								}
							}
						}
					}
				}
			}
		}
	}
}
MOTION
Frames: 10
Frame Time: .0083333
-3.5395 17.5064 20.9982 -118.6410 -72.8133 -229.9550 0.0000 0.0000 0.0000 8.7462 -22.5251 -10.0312 1.7906 8.4155 23.9835 0.2440 16.8113 14.0945 0.8694 -5.9453 -16.6257 0.0000 0.0000 0.0000 12.5216 -15.8417 -42.1285 -5.9038 -14.3345 44.5946 -0.3705 -15.7370 14.6216 -0.1004 -2.0436 5.6261 -9.0211 -2.6703 0.4383 0.6502 -3.4797 5.9071 5.5283 -2.2902 6.5696 -4.8859 -10.0882 -0.4721 17.0096 -15.6361 8.8894 5.1922 -7.5310 4.4760 0.0000 0.0000 0.0000 -72.6378 8.1267 14.4324 26.2159 -37.4211 -9.0185 -0.0000 -0.0000 11.6576 12.5702 9.9262 2.2012 -7.1250 0.0000 -0.0000 -12.5889 39.8330 1.6332 0.0000 0.0000 0.0000 83.3578 -20.1305 17.3856 -18.3415 28.5923 -4.7116 0.0000 0.0000 24.3917 20.1199 -4.0879 -1.4960 7.1250 -0.0000 -0.0000 35.8086 -31.9453 13.9922
-3.5310 17.4834 20.8035 -120.1370 -73.6383 -228.0310 0.0000 0.0000 0.0000 8.6404 -22.6905 -10.5460 1.7651 8.3587 23.8090 0.2435 17.8606 14.7117 0.8001 -5.7091 -15.9427 0.0000 0.0000 0.0000 13.3627 -16.2287 -41.5444 -5.3775 -13.7967 42.4291 -0.3444 -16.1972 14.6346 -0.0552 -1.5164 4.1708 -8.8476 -2.7417 0.1342 0.6712 -3.5497 5.9301 5.4322 -2.3237 6.7693 -4.7763 -10.2795 -0.2283 17.0483 -15.7597 8.1193 5.2037 -7.6294 4.2122 0.0000 -0.0000 0.0000 -73.4996 7.8017 14.4903 27.5075 -38.6589 -9.8145 -0.0000 -0.0000 11.4612 12.8633 9.5831 2.1771 -7.1250 0.0000 -0.0000 -12.2646 39.5140 1.6877 0.0000 -0.0000 0.0000 82.8476 -19.8022 16.8252 -18.2104 28.4257 -4.6489 0.0000 0.0000 24.7745 19.5857 -4.1905 -1.4893 7.1250 -0.0000 -0.0000 35.5080 -32.0917 13.6584
-3.5199 17.4578 20.6072 -121.7520 -74.3731 -226.0300 0.0000 0.0000 0.0000 8.6513 -22.4427 -11.2000 1.7446 8.3126 23.6675 0.2971 18.2708 15.3984 0.7219 -5.4292 -15.1368 0.0000 0.0000 0.0000 14.1571 -16.2888 -40.8375 -4.9146 -13.2870 40.4526 -0.3488 -16.5350 14.8539 -0.0092 -0.6207 1.7057 -8.5395 -2.8755 -0.0145 0.8035 -3.7300 5.8706 5.3807 -2.3976 6.8049 -4.8962 -10.4400 0.0078 17.0630 -15.8824 7.6326 5.2391 -7.7197 4.0509 -0.0000 0.0000 0.0000 -74.5870 7.5656 14.4344 28.7409 -39.7894 -10.5945 -0.0000 -0.0000 11.4872 13.2718 9.2997 2.1828 -7.1250 0.0000 -0.0000 -11.8575 39.2622 1.7045 -0.0000 0.0000 0.0000 82.0008 -19.5420 16.6329 -18.1935 28.4043 -4.6409 0.0000 0.0000 25.1005 19.2666 -4.0480 -1.4135 7.1250 -0.0000 -0.0000 35.2518 -32.0017 13.6115
-3.5073 17.4270 20.4102 -124.4290 -75.2197 -222.9860 0.0000 0.0000 0.0000 8.3785 -22.3320 -11.8179 1.7349 8.2905 23.5999 0.3657 18.6259 16.1489 0.7608 -5.5703 -15.5426 0.0000 0.0000 0.0000 14.5726 -16.0129 -40.0393 -4.4935 -12.7896 38.5860 -0.2659 -17.5885 14.7402 -0.0036 -0.3853 1.0587 -8.4689 -3.1585 -0.1235 0.9148 -4.1048 5.7053 5.4287 -2.5715 6.7545 -5.0227 -10.3026 0.4505 17.1170 -15.6237 7.2064 5.3309 -7.6325 3.8316 0.0000 -0.0000 0.0000 -75.7946 7.7421 14.2002 30.3741 -41.2119 -11.6553 -0.0000 -0.0000 10.9623 13.5690 9.3103 2.2361 -7.1250 0.0000 -0.0000 -11.6065 39.2958 1.6575 0.0000 -0.0000 0.0000 80.6338 -19.2082 17.2212 -18.2027 28.4160 -4.6453 0.0000 0.0000 25.2894 18.7129 -3.9611 -1.3404 7.1250 -0.0000 -0.0000 34.8645 -31.9832 13.4140
-3.4944 17.3724 20.2098 -129.0590 -76.2915 -218.1230 0.0000 0.0000 0.0000 7.5779 -21.9475 -12.4636 1.7266 8.2718 23.5427 0.5024 18.7274 17.2513 0.8243 -5.7927 -16.1841 0.0000 0.0000 0.0000 14.3530 -15.5593 -39.1627 -4.1503 -12.3578 37.0097 -0.0723 -19.3847 14.2507 -0.0031 -0.3573 0.9819 -8.6332 -3.4341 -0.2642 0.7953 -4.4480 5.5603 5.3608 -2.7370 6.7415 -5.1124 -10.1560 1.1500 17.2621 -15.3696 6.7478 5.4603 -7.5621 3.5643 -0.0000 0.0000 0.0000 -76.8035 7.9241 13.8456 32.2101 -42.7140 -12.8831 -0.0000 -0.0000 10.1777 13.7174 9.2439 2.2455 -7.1250 0.0000 -0.0000 -11.4668 39.2405 1.6527 -0.0000 0.0000 0.0000 79.0503 -18.6379 18.3093 -18.1756 28.3814 -4.6324 0.0000 0.0000 25.0495 18.1476 -4.2030 -1.3761 7.1250 -0.0000 -0.0000 34.5851 -32.2499 12.9790
-3.4817 17.3354 19.9965 -133.5580 -77.0224 -213.5690 0.0000 0.0000 0.0000 7.1784 -21.4679 -12.8253 1.7315 8.2828 23.5764 0.5564 18.9611 17.7729 0.6351 -5.0990 -14.1911 0.0000 0.0000 0.0000 14.4139 -14.7676 -37.8824 -3.8795 -11.9984 35.7262 0.3358 -21.5329 12.4419 -0.0034 -0.3775 1.0372 -8.3073 -3.5547 -0.3683 0.7700 -4.6111 5.5768 5.1307 -2.8022 6.8112 -5.5918 -10.2093 1.5200 17.4931 -15.4131 6.4613 5.6282 -7.6149 3.4761 0.0000 -0.0000 0.0000 -77.8069 7.8202 13.7195 34.0920 -44.1528 -14.1771 -0.0000 -0.0000 9.6950 13.8349 8.9463 2.1932 -7.1250 0.0000 -0.0000 -11.3077 38.9500 1.7112 0.0000 -0.0000 0.0000 77.5913 -17.8051 18.8971 -18.1585 28.3597 -4.6243 0.0000 0.0000 25.1215 17.8861 -4.2547 -1.3716 7.1250 -0.0000 -0.0000 34.4328 -32.3206 12.8235
-3.4653 17.2698 19.7873 -139.0570 -77.8384 -208.0040 0.0000 0.0000 0.0000 6.6305 -21.0010 -13.3809 1.7470 8.3178 23.6837 0.6993 18.7757 18.7113 0.5714 -4.8410 -13.4557 0.0000 0.0000 0.0000 14.4276 -14.5424 -36.8968 -3.6884 -11.7338 34.7967 0.8201 -22.1085 8.4824 -0.0004 0.1284 -0.3529 -7.8245 -3.6596 -0.4393 0.7421 -4.7629 5.5852 4.8142 -2.8510 6.8328 -5.3252 -10.4395 1.6356 16.7340 -15.5190 5.9340 5.3691 -7.6840 3.2329 -0.0000 -0.0000 0.0000 -78.8628 7.7694 13.8914 36.2873 -45.7098 -15.7278 -0.0000 -0.0000 9.2495 14.0504 8.8226 2.1982 -7.1250 0.0000 -0.0000 -11.1005 38.8413 1.7090 -0.0000 -0.0000 0.0000 76.2892 -16.9284 18.9417 -18.2474 28.4727 -4.6666 0.0000 0.0000 25.5000 17.8344 -4.0289 -1.2949 7.1250 -0.0000 -0.0000 34.3180 -32.1293 12.9608
-3.4457 17.1894 19.5651 -148.5680 -78.6647 -198.3940 0.0000 0.0000 0.0000 5.4323 -20.1180 -14.2321 1.7727 8.3757 23.8611 1.0325 17.6564 20.5456 0.7332 -5.4706 -15.2558 0.0000 0.0000 0.0000 13.6939 -14.0724 -36.0225 -3.5561 -11.5450 34.1407 0.5614 -17.3395 5.7512 -0.0477 1.4088 -3.8744 -7.9784 -3.7676 -0.6369 0.5642 -4.8763 5.5110 4.6908 -2.9069 6.8826 -5.6576 -10.6255 1.7846 16.3620 -15.6474 5.5871 5.3152 -7.7637 3.1160 0.0000 -0.0000 0.0000 -79.8043 7.8780 13.9714 38.6091 -47.2239 -17.4113 -0.0000 -0.0000 8.7670 14.4150 9.0312 2.3105 -7.1250 0.0000 -0.0000 -10.8308 39.0793 1.6020 0.0000 -0.0000 0.0000 74.9426 -16.1217 19.2653 -18.4769 28.7635 -4.7765 0.0000 0.0000 25.2478 17.6534 -3.9721 -1.2629 7.1250 -0.0000 -0.0000 34.1791 -32.0974 12.9190
-3.4168 17.1226 19.3484 -159.4620 -79.0587 -187.5570 0.0000 0.0000 0.0000 4.2903 -18.9932 -14.9680 1.7811 8.3944 23.9185 1.2137 17.9628 21.8607 0.3779 -3.9480 -10.9303 0.0000 0.0000 0.0000 12.4208 -12.8882 -34.8148 -3.4849 -11.4415 33.7837 0.6152 -15.2274 1.4143 -0.0621 1.6081 -4.4238 -7.8437 -3.8641 -0.6323 0.2599 -4.9990 5.4437 4.2877 -2.9445 6.7803 -5.9583 -10.6735 2.2838 16.0855 -15.5458 4.8118 5.3345 -7.7609 2.7933 -0.0000 0.0000 0.0000 -80.5562 8.0488 13.8179 40.8904 -48.5887 -19.1044 -0.0000 -0.0000 8.5455 14.6895 9.1591 2.3894 -7.1250 0.0000 -0.0000 -10.6212 39.2295 1.5304 -0.0000 0.0000 0.0000 73.7163 -15.2436 19.7797 -18.7377 29.0914 -4.9027 0.0000 0.0000 24.7147 17.3367 -4.0791 -1.2721 7.1250 -0.0000 -0.0000 34.0087 -32.2208 12.7014
-3.3805 17.0683 19.1362 -171.0880 -78.8738 -176.2300 0.0000 0.0000 0.0000 2.9085 -16.9920 -15.6626 1.7822 8.3970 23.9264 1.4546 17.9716 23.3889 0.2325 -3.1034 -8.5667 0.0000 0.0000 0.0000 10.6843 -11.2889 -33.4000 -3.4517 -11.3926 33.6157 0.5335 -12.8732 -3.4432 -0.0883 1.9162 -5.2741 -7.5998 -3.9359 -0.3440 -0.1598 -5.1158 5.3749 3.7274 -2.9673 6.4869 -6.0446 -10.6603 2.9602 15.5519 -15.3567 4.0603 5.2638 -7.7168 2.4031 0.0000 0.0000 0.0000 -81.1783 8.4421 13.4674 43.3866 -49.9531 -20.9962 -0.0000 -0.0000 8.5417 14.7474 9.1928 2.4080 -7.1250 0.0000 -0.0000 -10.5782 39.2682 1.5138 0.0000 0.0000 0.0000 72.8642 -14.2545 19.9707 -18.9880 29.4038 -5.0250 0.0000 0.0000 24.7431 16.9022 -4.0796 -1.2384 7.1250 -0.0000 -0.0000 33.7213 -32.2622 12.5084
